<svg width="12" height="13" viewBox="0 0 12 13" fill="none" xmlns="http://www.w3.org/2000/svg">
<path d="M5.8332 0.5C6.08633 0.5 6.2956 0.688007 6.32873 0.932053L6.33333 0.9999L6.33413 5.83333H11.1695C11.4457 5.83333 11.6695 6.0572 11.6695 6.33333C11.6695 6.58647 11.4814 6.79567 11.2374 6.8288L11.1695 6.83333H6.33413L6.33546 11.6661C6.33553 11.9422 6.11173 12.1662 5.8356 12.1662C5.58246 12.1662 5.3732 11.9782 5.34007 11.7341L5.33546 11.6663L5.33413 6.83333H0.501465C0.225318 6.83333 0.00146484 6.60947 0.00146484 6.33333C0.00146484 6.0802 0.189565 5.871 0.433618 5.83787L0.501465 5.83333H5.33413L5.33333 1.0001C5.33326 0.72396 5.55706 0.5 5.8332 0.5Z" fill="white"/>
</svg>
