<svg width="14" height="14" viewBox="0 0 14 14" fill="none" xmlns="http://www.w3.org/2000/svg">
<g clip-path="url(#clip0_0_145)">
<path fill-rule="evenodd" clip-rule="evenodd" d="M7 1.60419C4.01996 1.60419 1.60416 4.01999 1.60416 7.00002C1.60416 9.98004 4.01996 12.3959 7 12.3959C9.98001 12.3959 12.3958 9.98004 12.3958 7.00002C12.3958 4.01999 9.98001 1.60419 7 1.60419ZM0.729164 7.00002C0.729164 3.53674 3.53671 0.729187 7 0.729187C10.4633 0.729187 13.2708 3.53674 13.2708 7.00002C13.2708 10.4633 10.4633 13.2709 7 13.2709C3.53671 13.2709 0.729164 10.4633 0.729164 7.00002ZM7 4.22919C7.24161 4.22919 7.4375 4.42506 7.4375 4.66669V6.81878L8.76767 8.14901C8.93853 8.31987 8.93853 8.59684 8.76767 8.7677C8.59681 8.93855 8.31985 8.93855 8.14899 8.7677L6.69066 7.30936C6.60858 7.22734 6.5625 7.11604 6.5625 7.00002V4.66669C6.5625 4.42506 6.75838 4.22919 7 4.22919Z" fill="black" fill-opacity="0.5"/>
</g>
<defs>
<clipPath id="clip0_0_145">
<rect width="14" height="14" fill="white"/>
</clipPath>
</defs>
</svg>
